<svg width="100" height="26" viewBox="0 0 100 26" fill="none" xmlns="http://www.w3.org/2000/svg">
<path fill-rule="evenodd" clip-rule="evenodd" d="M49.3644 0.473145H50.253V6.73388H49.3644V0.473145ZM30.2024 1.58502C29.6585 1.01069 28.8857 0.710529 28.0968 0.767145H25.9415V6.73398H28.0968C29.8741 6.73398 30.9044 5.63823 30.9044 3.73198C31.0039 2.94729 30.7462 2.15934 30.2024 1.58502ZM27.9933 5.89014H26.8683V1.61035H27.9933C28.5541 1.57923 29.0995 1.80037 29.4803 2.21328C29.8611 2.62619 30.0374 3.18767 29.961 3.74414C30.0434 4.30294 29.8696 4.86909 29.4878 5.2854C29.1061 5.7017 28.5571 5.92385 27.9933 5.89014ZM31.9513 4.48048C31.8741 3.67337 32.2611 2.89226 32.95 2.46474C33.639 2.03723 34.5107 2.03723 35.1996 2.46474C35.8886 2.89226 36.2756 3.67337 36.1984 4.48048C36.277 5.28847 35.8904 6.07109 35.2008 6.49953C34.5113 6.92796 33.6384 6.92796 32.9488 6.49953C32.2593 6.07109 31.8726 5.28847 31.9513 4.48048ZM34.0763 2.93361C34.8458 2.93361 35.2843 3.50441 35.2843 4.48048C35.2843 5.46046 34.8458 6.03077 34.0763 6.03078C33.3039 6.03078 32.8693 5.46438 32.8693 4.48049C32.8693 3.50441 33.3038 2.93361 34.0763 2.93361ZM41.8439 6.73389H40.922L39.9913 3.41748H39.921L38.9943 6.73389H38.0812L36.84 2.23096H37.7413L38.548 5.66696H38.6144L39.5402 2.23096H40.3927L41.3185 5.66696H41.3888L42.1915 2.23096H43.0802L41.8439 6.73389ZM44.9796 2.23096H44.1241L44.1241 6.73389H45.0128V4.09961C44.9809 3.79995 45.0815 3.5013 45.2882 3.28196C45.4948 3.06263 45.787 2.94448 46.088 2.9585C46.7452 2.9585 47.0597 3.31837 47.0597 4.042V6.73384H47.9484V3.81884C48.0135 3.37857 47.8749 2.93256 47.5717 2.60675C47.2685 2.28093 46.8336 2.11068 46.3898 2.14404C45.8166 2.09745 45.277 2.41962 45.046 2.94629H44.9796V2.23096ZM52.4873 2.46466C51.7983 2.89218 51.4112 3.67332 51.4884 4.48048C51.4098 5.2885 51.7966 6.0711 52.4861 6.49952C53.1757 6.92793 54.0487 6.92793 54.7382 6.49952C55.4278 6.0711 55.8145 5.2885 55.736 4.48048C55.8131 3.67332 55.426 2.89218 54.7371 2.46466C54.0481 2.03714 53.1763 2.03714 52.4873 2.46466ZM54.8214 4.48048C54.8214 3.50441 54.3829 2.93361 53.6134 2.93361C52.8409 2.93361 52.4064 3.50441 52.4064 4.48049C52.4064 5.46438 52.841 6.03078 53.6134 6.03078C54.3829 6.03077 54.8214 5.46046 54.8214 4.48048ZM58.3463 4.11622C57.275 4.18263 56.6715 4.64991 56.6715 5.46046C56.673 5.84479 56.837 6.21054 57.123 6.4673C57.409 6.72406 57.7902 6.84786 58.1725 6.80809C58.7178 6.83331 59.2345 6.56322 59.525 6.10109H59.5953V6.7339H60.4508V3.65724C60.4508 2.70606 59.8141 2.14406 58.6852 2.14406C57.6637 2.14406 56.9362 2.64015 56.8453 3.41359H57.7057C57.8043 3.09523 58.1481 2.9131 58.6442 2.9131C59.2516 2.9131 59.566 3.18165 59.566 3.65724V4.04591L58.3463 4.11622ZM59.566 5.07569V4.69923L58.4664 4.76954C57.8463 4.81104 57.5651 5.02198 57.5651 5.41895C57.5651 5.82422 57.9166 6.06006 58.4001 6.06006C58.6862 6.08903 58.9719 6.00062 59.1917 5.81506C59.4115 5.6295 59.5466 5.36269 59.566 5.07569ZM63.4879 2.15626C62.3502 2.15626 61.6188 3.05763 61.6188 4.48048C61.6188 5.90675 62.3424 6.80814 63.4879 6.80809C64.0687 6.8295 64.6134 6.52688 64.902 6.02245H64.9723V6.73388H65.8238V0.473145H64.9352V2.94626H64.8688C64.6004 2.43762 64.0624 2.12979 63.4879 2.15626ZM62.5368 4.48048C62.5368 5.43556 62.987 6.01027 63.7399 6.01027C64.4889 6.01027 64.9518 5.42727 64.9518 4.48439C64.9518 3.54591 64.484 2.9546 63.7399 2.9546C62.9918 2.9546 62.5367 3.53321 62.5367 4.48048H62.5368ZM70.4993 2.46474C69.8104 2.89226 69.4234 3.67337 69.5006 4.48048C69.4219 5.28847 69.8086 6.07109 70.4981 6.49953C71.1877 6.92796 72.0606 6.92796 72.7502 6.49953C73.4397 6.07109 73.8264 5.28847 73.7477 4.48048C73.8249 3.67337 73.4379 2.89226 72.7489 2.46474C72.06 2.03723 71.1883 2.03723 70.4993 2.46474ZM72.8336 4.48048C72.8336 3.50441 72.3951 2.93361 71.6256 2.93361C70.8531 2.93361 70.4186 3.50441 70.4186 4.48049C70.4186 5.46438 70.8532 6.03078 71.6256 6.03078C72.3951 6.03077 72.8336 5.46046 72.8336 4.48048ZM75.7955 2.23096H74.9401V6.73389H75.8287V4.09961C75.7968 3.79995 75.8974 3.5013 76.1041 3.28196C76.3107 3.06263 76.6029 2.94448 76.9039 2.9585C77.5612 2.9585 77.8756 3.31837 77.8756 4.042V6.73384H78.7643V3.81884C78.8294 3.37857 78.6908 2.93256 78.3876 2.60675C78.0844 2.28093 77.6495 2.11068 77.2057 2.14404C76.6325 2.09745 76.0929 2.41962 75.8619 2.94629H75.7955V2.23096ZM83.7858 1.10987V2.25147H84.7614V3.00001H83.7858V5.31544C83.7858 5.78712 83.9801 5.99366 84.4225 5.99366C84.5357 5.9933 84.6489 5.98645 84.7614 5.97315V6.71338C84.6018 6.74194 84.4401 6.75712 84.278 6.75879C83.2897 6.75879 82.8961 6.41113 82.8961 5.54297V2.99997H82.1813V2.25143H82.8961V1.10987H83.7858ZM86.8561 0.473145H85.9752L85.9753 6.73387H86.8639V4.10399C86.8365 3.795 86.9468 3.48964 87.1654 3.26954C87.3839 3.04944 87.6886 2.93704 87.9977 2.96239C88.6256 2.96239 88.9606 3.32665 88.9606 4.04589V6.73389H89.8502V3.82666C89.909 3.38865 89.7695 2.94721 89.4696 2.62258C89.1697 2.29795 88.7407 2.12394 88.2994 2.14795C87.7175 2.10073 87.1684 2.42331 86.9264 2.95459H86.8561V0.473145ZM95.0319 5.51807C94.7827 6.36745 93.9607 6.91625 93.0807 6.8208C92.4803 6.83665 91.9032 6.58778 91.5026 6.1402C91.1021 5.69262 90.9185 5.0916 91.0006 4.49659C90.9207 3.89993 91.1036 3.29795 91.5019 2.84659C91.9002 2.39523 92.4748 2.13892 93.0768 2.14405C94.3297 2.14405 95.0856 3.00005 95.0856 4.41405V4.72414H91.9059V4.77394C91.8777 5.10808 91.9919 5.43859 92.2202 5.68419C92.4485 5.92978 92.7698 6.06767 93.1051 6.06394C93.5399 6.11614 93.9631 5.90048 94.1764 5.51804L95.0319 5.51807ZM94.1803 4.0669H91.9059C91.9018 3.7564 92.0234 3.45742 92.2429 3.23779C92.4624 3.01817 92.7614 2.8965 93.0719 2.9004C93.3782 2.89338 93.6733 3.01606 93.8844 3.2382C94.0955 3.46035 94.2029 3.7613 94.1803 4.0669ZM64.9498 21.1123C63.3151 21.1123 62.1188 20.3037 61.9811 19.0723L60.0787 19.0722C60.1988 21.3183 62.0582 22.7392 64.8121 22.7392C67.7555 22.7392 69.6061 21.2841 69.6061 18.9608C69.6061 17.1445 68.5475 16.121 65.9996 15.5185L64.6314 15.1825C63.0309 14.7871 62.3766 14.2705 62.3766 13.3925C62.3766 12.291 63.401 11.5341 64.898 11.5341C66.3951 11.5341 67.4195 12.2822 67.5318 13.5214H69.4078C69.3473 11.3788 67.5484 9.90717 64.9244 9.90717C62.2731 9.90717 60.4059 11.3788 60.4059 13.5214C60.4059 15.2519 61.4645 16.3183 63.7448 16.8691L65.3541 17.2568C66.9635 17.6523 67.6432 18.2294 67.6432 19.1933C67.6432 20.3037 66.5162 21.1123 64.9498 21.1123ZM32.5729 19.1758H27.8395L26.7028 22.5322H24.6979L29.1813 10.1142H31.2643L35.7477 22.5322H33.7086L32.5729 19.1758ZM28.3297 17.6269H32.0817L30.2321 12.1797H30.1803L28.3297 17.6269ZM41.652 22.6269C43.9244 22.6269 45.4303 20.8193 45.4303 18.0059C45.4303 15.2002 43.9156 13.3838 41.6178 13.3838C40.4354 13.3456 39.3278 13.9606 38.735 14.9844H38.7008V13.4785H36.9019V25.5273H38.7603V21.0429H38.8033C39.3709 22.0732 40.4774 22.6884 41.652 22.6269ZM43.5201 18.0059C43.5201 16.1729 42.5729 14.9678 41.1276 14.9678C39.7076 14.9678 38.7526 16.1982 38.7526 18.0059C38.7526 19.8301 39.7076 21.0518 41.1276 21.0518C42.5729 21.0518 43.5201 19.8555 43.5201 18.0059ZM51.6168 22.6269C53.8893 22.6269 55.3951 20.8193 55.3951 18.0059C55.3951 15.2002 53.8805 13.3838 51.5826 13.3838C50.4002 13.3456 49.2926 13.9606 48.6998 14.9844H48.6656V13.4785H46.8668V25.5273H48.7252V21.0429H48.7682C49.3358 22.0732 50.4422 22.6884 51.6168 22.6269ZM53.485 18.0059C53.485 16.1729 52.5377 14.9678 51.0924 14.9678C49.6725 14.9678 48.7174 16.1982 48.7174 18.0059C48.7174 19.8301 49.6725 21.0518 51.0924 21.0518C52.5377 21.0518 53.485 19.8555 53.485 18.0059ZM73.6168 11.3359V13.4785H75.3385V14.9502H73.6168V19.9414C73.6168 20.7168 73.9615 21.0781 74.7184 21.0781C74.9228 21.0746 75.1268 21.0602 75.3297 21.0351V22.498C74.9894 22.5616 74.6436 22.5904 74.2975 22.5839C72.4645 22.5839 71.7496 21.8955 71.7496 20.1396V14.9502H70.4332V13.4785H71.7496V11.3359H73.6168ZM80.6296 13.3672C78.0133 13.3672 76.3356 15.1572 76.3356 18.0059C76.3356 20.8623 77.9967 22.6445 80.6296 22.6445C83.2633 22.6445 84.9245 20.8623 84.9245 18.0059C84.9245 15.1572 83.2546 13.3672 80.6296 13.3672ZM83.0309 18.0059C83.0309 16.0518 82.1354 14.8984 80.6295 14.8984C79.1237 14.8984 78.2292 16.0605 78.2292 18.0059C78.2292 19.9678 79.1237 21.1123 80.6295 21.1123C82.1354 21.1123 83.0309 19.9678 83.0309 18.0059ZM88.2291 13.4785H86.4567L86.4567 22.5322H88.3151V17.1621C88.2532 16.6188 88.4319 16.0756 88.8042 15.6751C89.1765 15.2747 89.7052 15.0569 90.2516 15.0791C90.5342 15.0708 90.8162 15.1088 91.0866 15.1914V13.4531C90.8776 13.4063 90.664 13.383 90.4499 13.3838C89.4283 13.3448 88.5193 14.0275 88.2721 15.0195H88.2291V13.4785ZM99.6549 19.873C99.4049 21.5166 97.8043 22.6445 95.7565 22.6445C93.1227 22.6445 91.4879 20.8799 91.4879 18.0488C91.4879 15.209 93.1315 13.3672 95.6783 13.3672C98.1832 13.3672 99.7584 15.0879 99.7584 17.833V18.4697H93.3639V18.582C93.3042 19.256 93.5369 19.9232 94.0029 20.4139C94.4689 20.9045 95.1232 21.1714 95.7994 21.1465C96.7013 21.231 97.5516 20.7131 97.8903 19.873L99.6549 19.873ZM97.899 17.1709H93.3727C93.3711 16.5596 93.6138 15.9731 94.0467 15.5416C94.4797 15.1101 95.0671 14.8694 95.6783 14.873C96.2848 14.86 96.8692 15.1006 97.2908 15.5368C97.7123 15.9729 97.9328 16.5652 97.899 17.1709ZM12.3079 4.24703C13.1194 3.27282 13.5192 2.02064 13.4224 0.756409C12.1826 0.886629 11.0373 1.47919 10.2148 2.41602C9.40264 3.34033 8.99119 4.54957 9.0711 5.77741C10.3276 5.79035 11.5205 5.22629 12.3079 4.24703ZM15.0395 12.3368C15.0614 10.6403 15.9507 9.07333 17.3961 8.18476C16.4801 6.87665 15.001 6.07702 13.4049 6.02708C12.3777 5.91926 11.3698 6.31931 10.546 6.64626C10.023 6.85382 9.57428 7.03191 9.242 7.03191C8.864 7.03191 8.40239 6.84649 7.88516 6.63874C7.20884 6.36708 6.43742 6.05723 5.6335 6.07377C3.76682 6.13408 2.06876 7.16966 1.16058 8.80164C-0.77342 12.1501 0.66917 17.0711 2.52178 19.7777C3.44868 21.1031 4.53196 22.5835 5.94941 22.531C6.59241 22.5043 7.04866 22.3123 7.51991 22.114C8.06524 21.8845 8.63066 21.6465 9.52881 21.6465C10.3757 21.6465 10.9169 21.8771 11.4362 22.0983C11.9341 22.3104 12.412 22.514 13.1198 22.4976C14.6082 22.4735 15.5459 21.1664 16.4403 19.8285C17.1063 18.8841 17.6188 17.8404 17.9587 16.736C16.191 15.9883 15.0416 14.2562 15.0395 12.3368Z" fill="white"/>
</svg>
