<svg width="1080" height="365" viewBox="0 0 1080 365" fill="none" xmlns="http://www.w3.org/2000/svg">
<g clip-path="url(#clip0_4280_1001)">
<path d="M154.74 90.0634C182.907 90.0634 186.856 82.5654 194.929 82.5654C199.242 82.5654 201.69 86.3217 201.69 92.8879C201.69 99.4541 200.189 106.967 197.931 112.397C196.051 116.707 192.291 124.787 184.219 124.787C175.577 124.787 167.883 121.977 164.882 121.977C163.381 121.977 163.002 122.734 163.002 123.855C163.002 126.665 171.075 134.92 171.075 149.378C171.075 190.842 136.335 214.865 92.1967 214.865C84.867 214.865 76.9836 213.744 71.7231 213.744C62.1494 213.744 51.6284 219.189 51.6284 229.133C51.6284 238.145 59.8907 243.576 73.6029 243.576C87.3151 243.576 112.67 237.942 135.956 237.942C171.075 237.942 195.118 252.02 195.118 287.283C195.118 334.193 138.404 361.957 76.9982 361.957C24.2332 361.957 0 344.137 0 316.358C0 298.726 12.765 286.715 24.9763 281.081C27.0455 279.77 27.7887 278.824 27.7887 277.892C27.7887 277.135 27.2204 276.203 25.3406 275.082C19.5118 271.704 7.69399 261.76 7.69399 244.129C7.69399 228.362 18.9581 214.108 36.9836 206.042C38.4845 205.285 39.6066 203.975 39.6066 203.043C39.6066 202.111 38.8488 200.976 37.3479 199.665C24.204 189.343 13.6831 172.454 13.6831 149.756C13.6831 105.656 48.9909 82.58 90.6812 82.58C116.605 82.58 140.444 90.078 154.725 90.078L154.74 90.0634ZM101.785 286.147C88.6412 286.147 71.1694 288.025 63.286 290.646C50.1421 294.213 41.5009 301.9 41.5009 311.466C41.5009 326.287 57.4572 332.3 79.0528 332.3C109.1 332.3 130.317 320.289 130.317 305.467C130.317 292.903 119.985 286.147 101.77 286.147H101.785ZM94.0911 183.883C109.494 183.883 121.88 173.939 121.88 152.173C121.88 136.784 114.55 110.708 92.0219 110.708C76.2404 110.708 65.5446 124.598 65.5446 145.607C65.5446 172.629 79.6357 183.883 94.0911 183.883Z" fill="#2FAE75"/>
<path d="M289.573 164.927V224.969C289.573 239.791 292.575 245.425 298.215 251.234C303.665 256.869 310.047 258.179 310.047 266.623C310.047 273 306.477 277.499 295.592 277.499C284.706 277.499 273.807 276.567 263.096 276.567C250.331 276.567 242.433 277.499 226.477 277.499C217.282 277.499 214.266 272.811 214.266 267.177C214.266 259.111 221.406 254.976 224.787 251.409C234.171 241.654 235.308 231.9 235.308 222.32V146.699C235.308 134.877 229.668 128.121 223.475 124.933C219.526 122.312 215.023 119.488 215.023 114.057C215.023 103.924 227.045 102.992 241.501 97.1685C259.905 89.8452 272.859 82.3472 279.431 82.3472C287.315 82.3472 291.453 86.1035 291.453 94.7371C291.453 105.991 289.573 125.879 289.573 164.913V164.927ZM270.047 2.25684C285.071 2.25684 296.903 12.0115 296.903 27.4006C296.903 48.4096 274.36 65.4876 252.022 65.4876C235.876 65.4876 228.357 56.3007 228.357 43.9108C228.357 23.2658 248.451 2.25684 270.047 2.25684Z" fill="#2FAE75"/>
<path d="M541.405 195.705C541.405 217.093 547.045 236.617 567.693 236.617C578.025 236.617 585.165 230.619 589.857 226.673C592.116 224.416 593.617 223.295 595.686 223.295C598.498 223.295 601.325 225.363 601.325 232.307C601.325 236.253 600.014 241.32 597.376 246.386C590.236 261.018 571.642 280.353 539.161 280.353C502.163 280.353 486.017 255.398 486.017 212.434C486.017 195.356 488.465 155.391 488.465 133.814C488.465 126.127 486.396 122.181 480.203 121.06C468.56 119.75 461.42 117.872 461.42 110.549C461.42 103.982 463.11 97.6054 470.251 94.0384C482.651 87.8507 495.037 79.7849 504.057 70.7727C519.081 55.1943 521.15 37.1846 532.793 37.1846C539.555 37.1846 544.815 42.4404 544.815 53.884C544.815 61.7606 542.935 87.4722 542.935 89.161C542.935 90.0928 543.125 90.6606 544.626 90.6606C548.385 90.6606 577.121 88.9718 582.003 88.9718C590.455 88.9718 595.526 91.4177 595.526 101.726C595.526 108.481 591.766 117.857 587.832 122.181C586.71 123.302 584.072 124.627 580.502 124.627C576.378 124.627 551.955 123.128 546.316 123.128C545.194 123.128 543.314 123.506 543.125 126.695C542.367 134.382 541.434 176.225 541.434 195.749L541.405 195.705Z" fill="#2FAE75"/>
<path d="M944.043 223.659C944.043 230.983 947.235 239.238 955.497 239.238C959.446 239.238 961.5 237.927 964.138 237.927C966.207 237.927 968.087 240.737 968.087 245.061C968.087 264.76 950.615 279.771 928.83 279.771C907.045 279.771 897.85 268.516 892.779 258.762C892.021 257.262 890.71 254.816 888.276 254.816C887.154 254.816 885.085 256.694 882.827 258.936C875.307 265.313 859.162 280.324 830.061 280.324C784.043 280.324 767.519 249.735 767.519 210.716C767.519 183.694 771.643 149.553 771.643 139.798C771.643 129.286 769.02 124.03 763.759 118.964C757.755 113.329 750.047 111.83 750.047 103.021C750.047 96.0767 755.118 92.5097 765.828 91.3887C799.256 87.8217 809.777 83.5121 818.593 83.5121C828.167 83.5121 830.615 90.2676 830.615 96.266C830.615 118.221 823.664 139.609 823.664 192.706C823.664 222.917 831.358 243.373 856.145 243.373C873.981 243.373 889.763 231.55 889.763 200.772V146.728C889.763 131.718 888.072 125.152 880.932 118.775C875.861 113.519 869.668 111.451 869.668 103.007C869.668 96.2514 874.36 92.8737 884.313 91.5634C911.548 88.7534 930.142 83.4976 937.078 83.4976C945.719 83.4976 948.342 89.6852 948.342 96.0622C948.342 108.452 944.029 117.639 944.029 149.728V223.659H944.043Z" fill="#2FAE75"/>
<path d="M1059.53 84.2545V224.984C1059.53 239.805 1062.53 245.44 1068.17 251.249C1073.62 256.883 1080 258.194 1080 266.638C1080 273.015 1076.43 277.514 1065.54 277.514C1055.78 277.514 1042.83 276.582 1033.05 276.582C1020.65 276.582 1009.95 277.514 996.43 277.514C987.235 277.514 984.219 272.826 984.219 267.191C984.219 259.125 991.359 254.991 994.74 251.424C1004.12 241.669 1005.26 231.914 1005.26 222.334V58.7322C1005.26 49.356 998.689 44.4787 993.049 41.8435C989.1 39.5868 985.355 37.1554 985.355 32.0888C985.355 23.0766 996.998 21.3878 1011.45 15.3894C1029.86 8.06606 1040.93 0.757324 1049.2 0.757324C1056.52 0.757324 1061.22 4.51361 1061.22 13.1472C1061.22 33.0351 1059.53 35.2918 1059.53 84.2545Z" fill="#2FAE75"/>
<path d="M349.479 222.349V133.785C349.479 126.098 346.098 123.084 340.095 121.963C329.384 120.463 322.812 119.517 322.812 112.587C322.812 106.763 328.073 97.3867 332.007 94.3875C336.321 91.5776 343.65 92.3201 348.532 87.8213C351.723 84.6328 353.792 64.5556 358.295 50.4769C367.126 23.6442 387.774 0 421.202 0C447.49 0 462.324 15.0106 462.324 30.2104C462.324 44.0999 456.131 62.299 439.796 62.299C432.102 62.299 429.843 56.8538 426.463 51.4232C420.634 42.9789 415.009 33.792 404.299 33.792C393.588 33.792 387.964 45.6141 387.964 59.3143C387.964 79.5808 393.414 92.7132 414.82 92.7132C421.581 92.7132 441.108 91.4029 445.989 91.4029C451.993 91.4029 456.874 93.4703 456.874 102.104C456.874 108.292 454.251 118.993 448.991 124.059C447.49 125.559 445.042 126.68 441.486 126.68C436.984 126.68 412.94 125.18 406.557 125.18C405.435 125.18 403.745 125.748 403.745 129.868V222.552M401.428 275.985C390.718 275.985 396.066 276.567 377.282 276.567C365.071 276.567 353.996 277.499 340.663 277.499" fill="#2FAE75"/>
<path d="M404.153 105.714V250.098C404.153 266.71 402.011 282.041 397.712 296.091C393.428 310.141 386.929 322.268 378.229 332.46C369.53 342.651 358.659 350.63 345.603 356.366C332.546 362.102 317.319 364.985 299.92 364.985C293.756 364.985 287.84 364.461 282.156 363.427C276.473 362.394 271.461 360.952 267.118 359.118C262.776 357.283 259.293 355.114 256.699 352.61C254.105 350.106 252.809 347.325 252.809 344.267C252.809 342.069 253.115 339.841 253.712 337.585C254.324 335.328 255.228 333.275 256.437 331.441C257.646 329.606 259.133 328.107 260.881 326.956C262.63 325.792 264.656 325.209 266.958 325.209C268.284 325.209 269.464 325.879 270.499 327.219C271.534 328.558 272.583 330.203 273.676 332.169C274.769 334.12 276.007 336.289 277.391 338.677C278.776 341.064 280.568 343.219 282.739 345.185C284.911 347.136 287.606 348.781 290.812 350.135C294.018 351.474 297.909 352.144 302.499 352.144C308.663 352.144 314.098 350.892 318.82 348.388C323.526 345.883 327.577 342.433 330.958 338.036C334.339 333.639 337.18 328.442 339.483 322.458C341.77 316.474 343.592 310.053 344.918 303.225C346.244 296.382 347.191 289.234 347.73 281.794C348.269 274.339 348.546 266.885 348.546 259.445V105.714" fill="#2FAE75"/>
<path d="M636.808 222.349V133.785C636.808 126.098 633.428 123.084 627.424 121.963C616.714 120.463 610.142 119.517 610.142 112.587C610.142 106.763 615.402 97.3867 619.336 94.3875C623.65 91.5776 630.979 92.3201 635.861 87.8213C639.052 84.6328 641.122 64.5556 645.624 50.4769C654.455 23.6442 675.118 0 708.546 0C734.834 0 749.668 15.0106 749.668 30.2104C749.668 44.0999 743.475 62.299 727.14 62.299C719.446 62.299 717.187 56.8538 713.806 51.4232C707.978 42.9789 702.353 33.792 691.643 33.792C680.932 33.792 675.307 45.6141 675.307 59.3143C675.307 79.5808 680.757 92.7132 702.163 92.7132C708.925 92.7132 728.451 91.4029 733.333 91.4029C739.337 91.4029 744.218 93.4703 744.218 102.104C744.218 108.292 741.595 118.993 736.335 124.059C734.834 125.559 732.386 126.68 728.83 126.68C724.327 126.68 700.284 125.18 693.901 125.18C692.779 125.18 691.089 125.748 691.089 129.868V222.552M688.743 275.985C678.032 275.985 683.38 276.567 664.597 276.567C652.386 276.567 641.311 277.499 627.978 277.499" fill="#2FAE75"/>
<path d="M691.468 105.714V250.098C691.468 266.71 689.326 282.041 685.027 296.091C680.743 310.141 674.244 322.268 665.545 332.46C656.845 342.651 645.975 350.63 632.918 356.366C619.862 362.102 604.634 364.985 587.235 364.985C581.071 364.985 575.155 364.461 569.472 363.427C563.789 362.394 558.776 360.952 554.434 359.118C550.091 357.283 546.609 355.114 544.015 352.61C541.421 350.106 540.124 347.325 540.124 344.267C540.124 342.069 540.43 339.841 541.027 337.585C541.639 335.328 542.543 333.275 543.752 331.441C544.962 329.606 546.448 328.107 548.197 326.956C549.946 325.792 551.971 325.209 554.273 325.209C555.599 325.209 556.78 325.879 557.814 327.219C558.849 328.558 559.898 330.203 560.991 332.169C562.084 334.12 563.323 336.289 564.707 338.677C566.091 341.064 567.884 343.219 570.055 345.185C572.226 347.136 574.922 348.781 578.128 350.135C581.333 351.474 585.224 352.144 589.814 352.144C595.978 352.144 601.414 350.892 606.135 348.388C610.842 345.883 614.893 342.433 618.273 338.036C621.654 333.639 624.496 328.442 626.798 322.458C629.086 316.474 630.907 310.053 632.233 303.225C633.559 296.382 634.507 289.234 635.046 281.794C635.585 274.339 635.862 266.885 635.862 259.445V105.714" fill="#2FAE75"/>
</g>
<defs>
<clipPath id="clip0_4280_1001">
<rect width="1080" height="365" fill="white"/>
</clipPath>
</defs>
</svg>
