<svg width="118" height="28" viewBox="0 0 118 28" fill="none" xmlns="http://www.w3.org/2000/svg">
<path fill-rule="evenodd" clip-rule="evenodd" d="M60.7998 1.34272C59.6201 2.59149 59.6201 4.54396 60.7998 5.79272C62.0168 7.00295 63.9828 7.00295 65.1998 5.79272C66.3846 4.54596 66.3846 2.58948 65.1998 1.34272C64.6178 0.756472 63.8259 0.426758 62.9998 0.426758C62.1737 0.426758 61.3818 0.756472 60.7998 1.34272ZM38.2598 5.81273C38.7731 5.27685 39.0442 4.55396 39.0098 3.81272C39.0099 3.66183 38.9965 3.51124 38.9698 3.36272H36.0598V4.08272H38.2298C38.215 4.53623 38.0375 4.96926 37.7298 5.30272C37.0444 5.96527 36.0277 6.1504 35.1528 5.77198C34.2778 5.39356 33.7164 4.52591 33.7298 3.57272C33.7081 2.94194 33.9442 2.32952 34.3839 1.87666C34.8235 1.42381 35.4287 1.16963 36.0598 1.17272C36.6877 1.13841 37.2952 1.4014 37.6998 1.88272L38.2298 1.35272C37.9738 1.05828 37.6517 0.828678 37.2898 0.682725C36.9012 0.516393 36.4826 0.431316 36.0598 0.432725C35.2304 0.41424 34.4304 0.740051 33.8498 1.33272C32.9564 2.23205 32.6891 3.57933 33.1715 4.75164C33.654 5.92394 34.7922 6.6928 36.0598 6.70272C36.8863 6.73215 37.6863 6.40853 38.2598 5.81273ZM40.8898 1.31272H43.5898V0.572725H40.0898V6.57272H43.5898V5.83273H40.8898V3.93272H43.3498V3.21272H40.8898V1.31272ZM46.8698 6.57272H46.0998V1.31272H44.4198V0.572725H48.5898V1.31272H46.8698V6.57272ZM52.2998 0.572725H51.5298V6.57272H52.2998V0.572725ZM55.7198 6.57272H54.9498V1.31272H53.2698V0.572725H57.3898V1.31272H55.7198V6.57272ZM68.1098 0.572725H67.1698V6.57272H67.9498V1.68272L70.9998 6.57272H71.7998V0.572725H71.0298V5.24272L68.1098 0.572725ZM39.3298 16.6328V18.4328H43.6498C43.5821 19.2806 43.2297 20.0806 42.6498 20.7028C41.7758 21.593 40.5664 22.0724 39.3198 22.0228C36.6689 22.0228 34.5198 19.8737 34.5198 17.2228C34.5198 14.5718 36.6689 12.4228 39.3198 12.4228C40.5376 12.4029 41.7136 12.8668 42.5898 13.7128L43.8598 12.4428C42.6647 11.2326 41.0305 10.558 39.3298 10.5728C36.9088 10.4785 34.6302 11.7164 33.3917 13.7988C32.1531 15.8812 32.1531 18.4743 33.3917 20.5567C34.6302 22.6391 36.9088 23.877 39.3298 23.7828C41.0616 23.861 42.7426 23.1864 43.9398 21.9328C44.9875 20.7817 45.5469 19.2685 45.4998 17.7128C45.503 17.3338 45.4696 16.9553 45.3998 16.5828L39.3298 16.6328ZM50.4198 15.3228C48.0739 15.3283 46.1761 17.2335 46.1798 19.5794C46.1835 21.9253 48.0872 23.8246 50.4331 23.8228C52.779 23.8209 54.6798 21.9187 54.6798 19.5728C54.6963 18.4371 54.251 17.3435 53.4461 16.5423C52.6411 15.7411 51.5454 15.301 50.4098 15.3228H50.4198ZM61.3698 5.29273C62.2711 6.19029 63.7285 6.19029 64.6298 5.29273C65.515 4.3169 65.515 2.82855 64.6298 1.85272C63.7285 0.95516 62.2711 0.95516 61.3698 1.85272C60.4846 2.82855 60.4846 4.3169 61.3698 5.29273ZM55.4998 19.586C55.4925 17.2415 57.3852 15.3338 59.7298 15.3228C60.8654 15.301 61.9611 15.7411 62.7661 16.5423C63.571 17.3435 64.0163 18.4371 63.9998 19.5728C63.9998 21.9174 62.1011 23.8191 59.7565 23.8227C57.4119 23.8264 55.5072 21.9306 55.4998 19.586ZM57.2218 20.6912C57.6785 21.6471 58.673 22.2267 59.7298 22.1528C60.3931 22.1374 61.0221 21.8547 61.474 21.3689C61.9258 20.8832 62.1624 20.2354 62.1298 19.5728C62.1272 18.5134 61.4774 17.5633 60.491 17.1769C59.5047 16.7904 58.3823 17.0462 57.6608 17.8218C56.9393 18.5975 56.7652 19.7353 57.2218 20.6912ZM47.9052 20.6989C48.365 21.6541 49.3625 22.2308 50.4198 22.1528H50.4098C51.0731 22.1374 51.7021 21.8547 52.154 21.3689C52.6059 20.8832 52.8424 20.2354 52.8098 19.5728C52.8069 18.5126 52.1558 17.5621 51.1682 17.1765C50.1806 16.7909 49.0576 17.0487 48.3371 17.8265C47.6166 18.6042 47.4453 19.7436 47.9052 20.6989ZM80.9998 15.3228C82.6577 15.3838 84.1059 16.462 84.6398 18.0328L84.8498 18.4828L79.1598 20.8328C79.5165 21.645 80.3334 22.1566 81.2198 22.1228C82.0757 22.1249 82.8696 21.6767 83.3098 20.9428L84.7598 21.9428C83.9705 23.1242 82.6407 23.8304 81.2198 23.8228C80.0904 23.8393 79.0028 23.3959 78.2069 22.5943C77.411 21.7928 76.9753 20.7021 76.9998 19.5728C76.9307 18.4693 77.3214 17.3864 78.0792 16.5813C78.837 15.7762 79.8942 15.3206 80.9998 15.3228ZM78.8398 19.4528C78.7989 18.8279 79.0111 18.2129 79.4288 17.7464C79.8464 17.2798 80.4343 17.001 81.0598 16.9728C81.7192 16.9293 82.3409 17.2835 82.6398 17.8728L78.8398 19.4528ZM76.0898 23.5728H74.2198V11.0728H76.0898V23.5728ZM71.1598 16.2728H71.0898C70.5198 15.6354 69.7049 15.2716 68.8498 15.2728C66.58 15.3828 64.7962 17.2552 64.7962 19.5278C64.7962 21.8003 66.58 23.6727 68.8498 23.7828C69.7076 23.7972 70.5278 23.431 71.0898 22.7828H71.1498V23.3928C71.1498 25.0228 70.2798 25.8928 68.8798 25.8928C67.9261 25.8704 67.0805 25.2738 66.7398 24.3828L65.1098 25.0628C65.7375 26.5896 67.229 27.5826 68.8798 27.5728C71.0698 27.5728 72.8798 26.2828 72.8798 23.1428V15.5728H71.1598V16.2728ZM69.0167 22.1525L69.0198 22.1528H69.0098L69.0167 22.1525ZM70.7018 21.3506C70.2726 21.8362 69.6641 22.1257 69.0167 22.1525C67.6811 22.0332 66.6572 20.914 66.6572 19.5728C66.6572 18.2305 67.6827 17.1106 69.0198 16.9928C69.6659 17.0259 70.2713 17.3185 70.6987 17.8043C71.126 18.29 71.3392 18.9277 71.2898 19.5728C71.345 20.2208 71.1325 20.8632 70.7018 21.3506ZM93.3998 11.0728H88.9298V23.5728H90.7998V18.8328H93.4098C94.8625 18.9371 96.2518 18.2213 97.0099 16.9777C97.7681 15.7342 97.7681 14.1713 97.0099 12.9278C96.2518 11.6843 94.8625 10.9684 93.4098 11.0728H93.3998ZM90.7898 17.0728H93.3998L93.4398 17.1028C94.6245 17.1028 95.5848 16.1424 95.5848 14.9578C95.5848 13.7731 94.6245 12.8128 93.4398 12.8128H90.7898V17.0728ZM104.93 15.2728C103.539 15.1896 102.231 15.9399 101.6 17.1828L103.26 17.8728C103.594 17.2564 104.261 16.8956 104.96 16.9528C105.439 16.8968 105.921 17.0357 106.297 17.3385C106.673 17.6412 106.912 18.0823 106.96 18.5628V18.6928C106.359 18.3748 105.689 18.2099 105.01 18.2128C103.22 18.2128 101.41 19.2128 101.41 21.0228C101.446 21.8025 101.795 22.5346 102.379 23.0526C102.963 23.5705 103.731 23.8303 104.51 23.7728C105.469 23.8417 106.389 23.3815 106.91 22.5728H106.97V23.5728H108.77V18.7628C108.77 16.5728 107.11 15.3028 104.98 15.3028L104.93 15.2728ZM103.24 21.0628C103.24 21.8128 104.09 22.1228 104.7 22.1228L104.75 22.1528C105.876 22.1253 106.811 21.2722 106.94 20.1528C106.421 19.8632 105.834 19.7181 105.24 19.7328C104.3 19.7328 103.24 20.0628 103.24 21.0628ZM115.33 15.5728L113.19 20.9928H113.13L110.91 15.5728H108.91L112.24 23.1528L110.34 27.3628H112.29L117.41 15.5728H115.33ZM100.39 23.5728H98.5198V11.0728H100.39V23.5728ZM1.75204 0.590226C2.22774 0.527553 2.71011 0.634628 3.11657 0.893121L16.9751 8.88739L13.4678 12.4897L1.75204 0.590226ZM0.686006 1.67199C0.619172 1.90751 0.586845 2.15172 0.590062 2.39678V24.7461C0.586845 24.9912 0.619172 25.2354 0.686006 25.4709L12.4124 13.5715L0.686006 1.67199ZM1.75204 26.5527L13.4785 14.6532L16.9751 18.2555L3.11657 26.2498C2.71224 26.5135 2.22796 26.621 1.75204 26.5527ZM22.5611 12.1219L18.3609 9.69872L14.5232 13.5715L18.3503 17.455L22.5505 15.0318C23.9363 14.2313 23.9363 12.9116 22.5505 12.1111L22.5611 12.1219Z" fill="white"/>
</svg>
