<svg width="294" height="14" viewBox="0 0 294 14" fill="none" xmlns="http://www.w3.org/2000/svg">
<path d="M288.897 7.9071C290.269 6.52695 291.688 5.09967 293.069 5.11773L293.117 0.000155627C289.986 -0.0216591 287.694 2.25424 285.864 4.09478L284.818 5.14282C283.454 6.51932 282.044 7.94211 280.663 7.95831C279.256 7.95085 277.866 6.55309 276.496 5.17455L276.486 5.16541L275.447 4.1236L275.446 4.12256C273.642 2.30277 271.397 0.0377068 268.305 0.000317304C265.177 -0.0214974 262.882 2.25439 261.052 4.09493L260.006 5.14297C258.642 6.51948 257.231 7.94227 255.851 7.95847C254.447 7.95099 253.047 6.54706 251.675 5.16557L250.634 4.12314L250.633 4.12289C248.83 2.30296 246.584 0.0378644 243.493 0.000469471C240.361 0.0162072 238.069 2.25455 236.239 4.09571L235.194 5.1425C233.83 6.51901 232.419 7.94242 231.039 7.95862C229.642 7.95115 228.235 6.54721 226.862 5.16572L225.821 4.12329L225.821 4.12304C224.017 2.30312 221.772 0.0380166 218.68 0.000621639C215.558 -0.0211931 213.257 2.2547 211.427 4.09524L210.381 5.14328C209.017 6.51979 207.607 7.94257 206.226 7.95878C204.837 7.9513 203.423 6.54737 202.049 5.16588L201.01 4.12407L201.009 4.12327C199.205 2.30344 196.96 0.0381745 193.868 0.000783316C190.749 -0.0210314 188.445 2.25487 186.615 4.0954L185.569 5.14344C184.205 6.51994 182.794 7.94273 181.414 7.95894C180.032 7.95146 178.611 6.54753 177.238 5.16603L176.197 4.1236L176.196 4.12336C174.393 2.30343 172.147 0.0383304 169.056 0.000935483C165.925 0.0166732 163.632 2.25502 161.802 4.09618L160.757 5.14297C159.393 6.51948 157.982 7.94289 156.602 7.95909C155.226 7.95161 153.798 6.54768 152.425 5.16618L151.384 4.12375L151.384 4.12353C149.58 2.3036 147.335 0.0384922 144.243 0.00109716C141.131 -0.0207175 138.82 2.25517 136.99 4.09571L135.944 5.14375C134.58 6.52026 133.169 7.94305 131.789 7.95925C130.382 7.95182 129.003 6.565 127.637 5.19175L127.612 5.16635L126.572 4.12453L126.571 4.12341C124.767 2.30364 122.522 0.0386383 119.43 0.00124933C116.286 -0.0205654 114.008 2.25533 112.178 4.09587L111.131 5.14391C109.767 6.52042 108.357 7.9432 106.976 7.9594C105.568 7.95193 104.175 6.55022 102.803 5.1698L102.8 5.1665L101.759 4.12407L101.759 4.12385C99.955 2.30392 97.7099 0.0387966 94.6181 0.0014015C91.4894 0.0171392 89.1948 2.25549 87.3647 4.09665L86.3196 5.14344L86.3195 5.1436C84.9552 6.52006 83.5445 7.94335 82.1641 7.95956C80.7622 7.95208 79.3608 6.54815 77.988 5.16666L76.947 4.12423L76.9461 4.12337C75.1422 2.30355 72.8974 0.0389539 69.8056 0.00156317C66.6679 -0.0202515 64.3825 2.25565 62.5527 4.09618L61.5064 5.14422C60.1423 6.52072 58.7318 7.94351 57.3514 7.95972C55.9567 7.95224 54.5481 6.54831 53.1747 5.16681L52.1351 4.12501L52.1337 4.1236C50.3299 2.30387 48.0849 0.0391023 44.9931 0.00171534C41.8585 -0.0200994 39.57 2.2558 37.7402 4.09634L36.6939 5.14438C35.33 6.52088 33.9194 7.94367 32.5391 7.95987C31.1512 7.95239 29.7358 6.54846 28.3628 5.16697L27.3218 4.12453L27.321 4.12371C25.5171 2.30388 23.2722 0.039268 20.1808 0.00187702C17.0532 0.0176148 14.7573 2.25596 12.9272 4.09712L11.882 5.14391C10.5178 6.52042 9.10686 7.94383 7.72661 7.96003C6.34434 8.0074 4.9175 6.5441 3.5413 5.15824L3.00139 4.61802L0 8.46037L0.510464 8.97192C2.34368 10.8176 4.62565 13.1052 7.77476 13.0765C10.8668 13.0397 13.1125 10.7744 14.9167 8.95322L15.9564 7.91203C17.3299 6.53054 18.7736 5.13269 20.1328 5.11836C21.5127 5.13456 22.9233 6.55787 24.2874 7.93434L24.2875 7.93448L25.3336 8.98251C27.164 10.8237 29.4509 13.0871 32.5871 13.0765C35.6785 13.0397 37.9236 10.7749 39.7276 8.95505L39.7281 8.95446L40.769 7.91203C42.1424 6.53054 43.5683 5.10028 44.9453 5.11836C46.3245 5.13455 47.7347 6.55717 49.0986 7.93304L49.1007 7.9351L50.1456 8.98189C51.9762 10.8231 54.2639 13.0745 57.3993 13.0764C60.4911 13.0396 62.7362 10.7745 64.5401 8.95453L64.5403 8.95431L65.5814 7.91188L65.6123 7.88074C66.9756 6.50898 68.3757 5.10026 69.7575 5.1182C71.1375 5.1344 72.5481 6.55771 73.9122 7.93417L73.9124 7.93432L74.9584 8.98236C76.7887 10.8235 79.08 13.0869 82.2118 13.0764C85.3037 13.0396 87.5494 10.7743 89.3536 8.95307L90.3932 7.91188C91.7671 6.53039 93.1989 5.13253 94.5698 5.1182C95.9497 5.1344 97.36 6.55739 98.724 7.9337L98.7246 7.93432L99.7706 8.98236C101.601 10.8235 103.894 13.0869 107.024 13.0764C110.115 13.0396 112.36 10.775 114.164 8.95516L114.165 8.95431L115.206 7.91188C116.58 6.53039 118.009 5.10012 119.382 5.1182C120.762 5.13439 122.171 6.55668 123.535 7.9324L123.538 7.93494L124.583 8.98173C126.413 10.8229 128.701 13.0743 131.836 13.0762C134.928 13.0394 137.173 10.7746 138.977 8.95475L138.978 8.95415L140.018 7.91173L140.04 7.89033C141.406 6.51551 142.813 5.10006 144.195 5.11804C145.575 5.13425 146.985 6.55755 148.349 7.93401L148.349 7.93416L149.395 8.98221C151.226 10.8234 153.524 13.0868 156.649 13.0762C159.741 13.0394 161.987 10.7741 163.791 8.9529L164.83 7.91173C166.204 6.53024 167.624 5.13238 169.007 5.11804C170.387 5.13425 171.797 6.55755 173.162 7.93401L173.162 7.93416L174.208 8.98221C176.038 10.8234 178.338 13.0868 181.461 13.0762C184.553 13.0394 186.798 10.7743 188.602 8.95441L188.602 8.95415L189.643 7.91173C191.017 6.53024 192.449 5.09997 193.819 5.11804C195.199 5.13424 196.609 6.55687 197.973 7.93275L197.975 7.93478L199.02 8.98158C200.85 10.8227 203.138 13.0742 206.274 13.076C209.365 13.0393 211.61 10.7747 213.414 8.95485L213.415 8.954L214.456 7.91157L214.467 7.90009C215.837 6.52217 217.25 5.09986 218.632 5.11788C220.012 5.13408 221.422 6.55704 222.786 7.93334L222.787 7.934L223.833 8.98204C225.663 10.8232 227.967 13.0866 231.086 13.076C234.178 13.0393 236.424 10.774 238.228 8.95275L239.268 7.91157C240.641 6.53007 242.05 5.13222 243.444 5.11788C244.824 5.13409 246.235 6.55742 247.599 7.9339L247.599 7.934L248.645 8.98204C250.475 10.8232 252.782 13.0866 255.898 13.076C258.99 13.0393 261.235 10.7741 263.039 8.95421L263.039 8.954L264.08 7.91157C265.454 6.53007 266.89 5.09981 268.257 5.11788C269.636 5.13408 271.046 6.55673 272.41 7.93261L272.412 7.93463L273.457 8.98143C275.287 10.8226 277.575 13.074 280.711 13.0759C283.802 13.0391 286.047 10.774 287.851 8.95406L287.852 8.95385L288.893 7.91142L288.897 7.9071Z" fill="#51BB87"/>
</svg>
