<svg width="72" height="25" viewBox="0 0 72 25" fill="none" xmlns="http://www.w3.org/2000/svg">
<g clip-path="url(#clip0_4280_738)">
<path d="M10.316 6.00963C12.1938 6.00963 12.4571 5.50933 12.9953 5.50933C13.2828 5.50933 13.446 5.75997 13.446 6.1981C13.446 6.63623 13.346 7.1375 13.1954 7.49986C13.0701 7.78741 12.8194 8.32657 12.2812 8.32657C11.7052 8.32657 11.1922 8.13908 10.9921 8.13908C10.892 8.13908 10.8668 8.1896 10.8668 8.2644C10.8668 8.45189 11.405 9.00271 11.405 9.96738C11.405 12.7341 9.08901 14.337 6.14645 14.337C5.6578 14.337 5.13224 14.2622 4.78154 14.2622C4.14329 14.2622 3.44189 14.6255 3.44189 15.2891C3.44189 15.8904 3.99271 16.2527 4.90686 16.2527C5.82101 16.2527 7.51135 15.8768 9.06375 15.8768C11.405 15.8768 13.0079 16.8162 13.0079 19.1691C13.0079 22.2991 9.22696 24.1517 5.13321 24.1517C1.61554 24.1517 0 22.9626 0 21.1091C0 19.9326 0.851002 19.1312 1.66509 18.7552C1.80304 18.6678 1.85258 18.6047 1.85258 18.5425C1.85258 18.492 1.81469 18.4298 1.68937 18.355C1.30079 18.1296 0.512933 17.4661 0.512933 16.2897C0.512933 15.2376 1.26387 14.2865 2.46557 13.7483C2.56563 13.6978 2.64044 13.6104 2.64044 13.5482C2.64044 13.486 2.58992 13.4102 2.48986 13.3228C1.6136 12.634 0.912204 11.5071 0.912204 9.99263C0.912204 7.05007 3.26606 5.5103 6.04542 5.5103C7.77365 5.5103 9.36296 6.01061 10.315 6.01061L10.316 6.00963ZM6.78567 19.0933C5.90941 19.0933 4.74463 19.2186 4.21906 19.3935C3.3428 19.6315 2.76673 20.1444 2.76673 20.7827C2.76673 21.7716 3.83048 22.1728 5.27019 22.1728C7.27335 22.1728 8.6878 21.3714 8.6878 20.3824C8.6878 19.5441 7.99903 19.0933 6.7847 19.0933H6.78567ZM6.27274 12.2697C7.29957 12.2697 8.12532 11.6062 8.12532 10.1539C8.12532 9.12706 7.63667 7.38717 6.13479 7.38717C5.0827 7.38717 4.36964 8.31395 4.36964 9.71577C4.36964 11.5188 5.30905 12.2697 6.27274 12.2697Z" fill="#2FAE75"/>
<path d="M19.3047 11.0049V15.0112C19.3047 16.0002 19.5048 16.3761 19.8808 16.7637C20.2441 17.1397 20.6696 17.2271 20.6696 17.7906C20.6696 18.2161 20.4316 18.5163 19.7059 18.5163C18.9802 18.5163 18.2536 18.4541 17.5396 18.4541C16.6886 18.4541 16.162 18.5163 15.0983 18.5163C14.4853 18.5163 14.2842 18.2034 14.2842 17.8275C14.2842 17.2893 14.7602 17.0134 14.9856 16.7754C15.6112 16.1245 15.687 15.4736 15.687 14.8344V9.78862C15.687 8.9998 15.311 8.54904 14.8981 8.33629C14.6349 8.16142 14.3347 7.97296 14.3347 7.6106C14.3347 6.93446 15.1362 6.87229 16.0998 6.48371C17.3268 5.99506 18.1904 5.49476 18.6286 5.49476C19.1541 5.49476 19.43 5.74539 19.43 6.32147C19.43 7.07241 19.3047 8.39943 19.3047 11.0039V11.0049ZM18.0029 0.150738C19.0045 0.150738 19.7933 0.801618 19.7933 1.82845C19.7933 3.23028 18.2905 4.3698 16.8012 4.3698C15.7249 4.3698 15.2236 3.75681 15.2236 2.93009C15.2236 1.55256 16.5632 0.150738 18.0029 0.150738Z" fill="#2FAE75"/>
<path d="M36.0941 13.0586C36.0941 14.4856 36.47 15.7884 37.8466 15.7884C38.5354 15.7884 39.0114 15.3881 39.3242 15.1249C39.4748 14.9743 39.5748 14.8995 39.7128 14.8995C39.9003 14.8995 40.0887 15.0374 40.0887 15.5008C40.0887 15.7641 40.0013 16.1022 39.8255 16.4402C39.3495 17.4165 38.1099 18.7067 35.9445 18.7067C33.4779 18.7067 32.4015 17.0416 32.4015 14.1748C32.4015 13.0353 32.5648 10.3686 32.5648 8.92888C32.5648 8.41594 32.4268 8.15268 32.0139 8.07787C31.2377 7.99044 30.7617 7.86512 30.7617 7.37648C30.7617 6.93835 30.8744 6.51285 31.3504 6.27484C32.1771 5.86197 33.0029 5.32378 33.6042 4.72244C34.6058 3.68297 34.7437 2.48127 35.5199 2.48127C35.9707 2.48127 36.3214 2.83197 36.3214 3.59554C36.3214 4.1211 36.1961 5.83671 36.1961 5.9494C36.1961 6.01157 36.2087 6.04946 36.3088 6.04946C36.5594 6.04946 38.4751 5.93677 38.8006 5.93677C39.364 5.93677 39.7021 6.09997 39.7021 6.78777C39.7021 7.23853 39.4515 7.86415 39.1892 8.15268C39.1144 8.22748 38.9385 8.31588 38.7005 8.31588C38.4256 8.31588 36.7974 8.21582 36.4215 8.21582C36.3467 8.21582 36.2213 8.24108 36.2087 8.45383C36.1582 8.96676 36.096 11.7587 36.096 13.0615L36.0941 13.0586Z" fill="#2FAE75"/>
<path d="M62.936 14.9238C62.936 15.4124 63.1488 15.9632 63.6996 15.9632C63.9629 15.9632 64.0998 15.8758 64.2757 15.8758C64.4136 15.8758 64.5389 16.0633 64.5389 16.3518C64.5389 17.6662 63.3742 18.6678 61.9218 18.6678C60.4695 18.6678 59.8565 17.9169 59.5184 17.266C59.4679 17.1659 59.3805 17.0027 59.2182 17.0027C59.1434 17.0027 59.0055 17.128 58.8549 17.2776C58.3536 17.7031 57.2772 18.7047 55.3372 18.7047C52.2694 18.7047 51.1677 16.6637 51.1677 14.0602C51.1677 12.2571 51.4426 9.97903 51.4426 9.32815C51.4426 8.62676 51.2678 8.27606 50.9171 7.93799C50.5168 7.56203 50.0029 7.46197 50.0029 6.87424C50.0029 6.41085 50.341 6.17284 51.055 6.09804C53.2836 5.86003 53.985 5.57248 54.5727 5.57248C55.2109 5.57248 55.3742 6.02324 55.3742 6.42348C55.3742 7.88845 54.9108 9.31553 54.9108 12.8585C54.9108 14.8742 55.4237 16.2391 57.0762 16.2391C58.2652 16.2391 59.3173 15.4503 59.3173 13.3966V9.79057C59.3173 8.78899 59.2046 8.35086 58.7286 7.92536C58.3905 7.57466 57.9777 7.43672 57.9777 6.87327C57.9777 6.42251 58.2905 6.19713 58.954 6.1097C60.7697 5.9222 62.0092 5.57151 62.4717 5.57151C63.0477 5.57151 63.2226 5.98438 63.2226 6.40988C63.2226 7.23659 62.9351 7.84959 62.9351 9.99069V14.9238H62.936Z" fill="#2FAE75"/>
<path d="M70.6348 5.62202V15.0122C70.6348 16.0011 70.8349 16.3771 71.2109 16.7647C71.5742 17.1407 71.9997 17.2281 71.9997 17.7915C71.9997 18.217 71.7617 18.5172 71.036 18.5172C70.3851 18.5172 69.5215 18.455 68.8696 18.455C68.0429 18.455 67.3299 18.5172 66.4283 18.5172C65.8154 18.5172 65.6143 18.2044 65.6143 17.8285C65.6143 17.2903 66.0903 17.0144 66.3157 16.7764C66.9413 16.1255 67.0171 15.4746 67.0171 14.8354V3.91904C67.0171 3.29342 66.5789 2.96798 66.203 2.79214C65.9397 2.64157 65.69 2.47933 65.69 2.14126C65.69 1.53993 66.4662 1.42724 67.4299 1.02699C68.6569 0.538349 69.3952 0.0506744 69.946 0.0506744C70.4347 0.0506744 70.7475 0.301312 70.7475 0.87739C70.7475 2.20441 70.6348 2.35498 70.6348 5.62202Z" fill="#2FAE75"/>
<path d="M23.2983 14.8365V8.92708C23.2983 8.41415 23.0729 8.21305 22.6727 8.13825C21.9586 8.03819 21.5205 7.97505 21.5205 7.51263C21.5205 7.12404 21.8712 6.49842 22.1335 6.2983C22.4211 6.11081 22.9097 6.16035 23.2351 5.86017C23.4479 5.64742 23.5858 4.30777 23.886 3.36837C24.4747 1.57796 25.8513 0.000305176 28.0798 0.000305176C29.8323 0.000305176 30.8213 1.00188 30.8213 2.01609C30.8213 2.94287 30.4084 4.1572 29.3194 4.1572C28.8065 4.1572 28.6559 3.79387 28.4305 3.43151C28.0419 2.86806 27.667 2.25507 26.9529 2.25507C26.2389 2.25507 25.8639 3.0439 25.8639 3.95805C25.8639 5.31032 26.2272 6.18658 27.6543 6.18658C28.1051 6.18658 29.4068 6.09915 29.7323 6.09915C30.1325 6.09915 30.458 6.2371 30.458 6.81318C30.458 7.22605 30.2831 7.94007 29.9324 8.27814C29.8323 8.3782 29.6691 8.45301 29.4321 8.45301C29.1319 8.45301 27.529 8.35295 27.1035 8.35295C27.0287 8.35295 26.916 8.39083 26.916 8.66576V14.8501M26.7616 18.4154C26.0475 18.4154 26.4041 18.4542 25.1518 18.4542C24.3378 18.4542 23.5994 18.5164 22.7106 18.5164" fill="#2FAE75"/>
<path d="M26.9431 7.05412V16.6881C26.9431 17.7966 26.8003 18.8195 26.5137 19.757C26.2281 20.6944 25.7949 21.5037 25.2149 22.1837C24.6349 22.8637 23.9102 23.3961 23.0398 23.7788C22.1694 24.1616 21.1542 24.3539 19.9943 24.3539C19.5833 24.3539 19.1889 24.319 18.81 24.25C18.4312 24.181 18.097 24.0848 17.8075 23.9624C17.518 23.84 17.2858 23.6953 17.1129 23.5282C16.94 23.3611 16.8535 23.1755 16.8535 22.9715C16.8535 22.8248 16.8739 22.6762 16.9137 22.5256C16.9545 22.3751 17.0148 22.2381 17.0954 22.1157C17.176 21.9933 17.2751 21.8932 17.3917 21.8165C17.5083 21.7388 17.6433 21.6999 17.7968 21.6999C17.8852 21.6999 17.9639 21.7446 18.0329 21.834C18.1018 21.9233 18.1718 22.0331 18.2447 22.1643C18.3175 22.2944 18.4001 22.4392 18.4924 22.5985C18.5847 22.7578 18.7042 22.9016 18.8489 23.0327C18.9936 23.1629 19.1734 23.2727 19.3871 23.363C19.6008 23.4524 19.8602 23.4971 20.1662 23.4971C20.5771 23.4971 20.9395 23.4136 21.2542 23.2465C21.568 23.0794 21.8381 22.8491 22.0635 22.5558C22.2889 22.2624 22.4783 21.9156 22.6318 21.5163C22.7843 21.117 22.9057 20.6886 22.9941 20.233C23.0825 19.7764 23.1457 19.2994 23.1816 18.803C23.2176 18.3056 23.236 17.8082 23.236 17.3118V7.05412" fill="#2FAE75"/>
<path d="M42.4536 14.8365V8.92708C42.4536 8.41415 42.2282 8.21305 41.8279 8.13825C41.1139 8.03819 40.6758 7.97505 40.6758 7.51263C40.6758 7.12404 41.0265 6.49842 41.2888 6.2983C41.5763 6.11081 42.065 6.16035 42.3904 5.86017C42.6032 5.64742 42.7411 4.30777 43.0413 3.36837C43.63 1.57796 45.0075 0.000305176 47.2361 0.000305176C48.9886 0.000305176 49.9775 1.00188 49.9775 2.01609C49.9775 2.94287 49.5647 4.1572 48.4757 4.1572C47.9627 4.1572 47.8122 3.79387 47.5868 3.43151C47.1982 2.86806 46.8232 2.25507 46.1092 2.25507C45.3952 2.25507 45.0202 3.0439 45.0202 3.95805C45.0202 5.31032 45.3835 6.18658 46.8106 6.18658C47.2613 6.18658 48.5631 6.09915 48.8885 6.09915C49.2888 6.09915 49.6142 6.2371 49.6142 6.81318C49.6142 7.22605 49.4394 7.94007 49.0887 8.27814C48.9886 8.3782 48.8254 8.45301 48.5884 8.45301C48.2882 8.45301 46.6853 8.35295 46.2598 8.35295C46.185 8.35295 46.0723 8.39083 46.0723 8.66576V14.8501M45.9159 18.4154C45.2018 18.4154 45.5584 18.4542 44.3061 18.4542C43.4921 18.4542 42.7537 18.5164 41.8649 18.5164" fill="#2FAE75"/>
<path d="M46.0974 7.05412V16.6881C46.0974 17.7966 45.9546 18.8195 45.668 19.757C45.3824 20.6944 44.9492 21.5037 44.3692 22.1837C43.7892 22.8637 43.0645 23.3961 42.1941 23.7788C41.3237 24.1616 40.3085 24.3539 39.1486 24.3539C38.7376 24.3539 38.3432 24.319 37.9643 24.25C37.5855 24.181 37.2513 24.0848 36.9618 23.9624C36.6723 23.84 36.4401 23.6953 36.2672 23.5282C36.0943 23.3611 36.0078 23.1755 36.0078 22.9715C36.0078 22.8248 36.0282 22.6762 36.068 22.5256C36.1088 22.3751 36.1691 22.2381 36.2497 22.1157C36.3303 21.9933 36.4294 21.8932 36.546 21.8165C36.6626 21.7388 36.7976 21.6999 36.9511 21.6999C37.0395 21.6999 37.1182 21.7446 37.1872 21.834C37.2561 21.9233 37.3261 22.0331 37.3989 22.1643C37.4718 22.2944 37.5544 22.4392 37.6467 22.5985C37.739 22.7578 37.8585 22.9016 38.0032 23.0327C38.1479 23.1629 38.3277 23.2727 38.5414 23.363C38.7551 23.4524 39.0145 23.4971 39.3205 23.4971C39.7314 23.4971 40.0938 23.4136 40.4085 23.2465C40.7223 23.0794 40.9924 22.8491 41.2178 22.5558C41.4432 22.2624 41.6326 21.9156 41.7861 21.5163C41.9386 21.117 42.06 20.6886 42.1484 20.233C42.2368 19.7764 42.3 19.2994 42.3359 18.803C42.3719 18.3056 42.3903 17.8082 42.3903 17.3118V7.05412" fill="#2FAE75"/>
</g>
<defs>
<clipPath id="clip0_4280_738">
<rect width="72" height="24.3546" fill="white"/>
</clipPath>
</defs>
</svg>
